<?xml version="1.0" encoding="UTF-8" standalone="no"?>
<svg
   xmlns:dc="http://purl.org/dc/elements/1.1/"
   xmlns:cc="http://creativecommons.org/ns#"
   xmlns:rdf="http://www.w3.org/1999/02/22-rdf-syntax-ns#"
   xmlns:svg="http://www.w3.org/2000/svg"
   xmlns="http://www.w3.org/2000/svg"
   xmlns:sodipodi="http://sodipodi.sourceforge.net/DTD/sodipodi-0.dtd"
   xmlns:inkscape="http://www.inkscape.org/namespaces/inkscape"
   width="200"
   height="600"
   viewBox="0 0 200 600"
   version="1.1"
   id="svg8"
   inkscape:version="1.0.1 (3bc2e813f5, 2020-09-07)"
   sodipodi:docname="sprites.svg"
   inkscape:export-filename="/home/moggers/workspace/lazycat/lazycat/assets/sprites.png"
   inkscape:export-xdpi="491.51999"
   inkscape:export-ydpi="491.51999">
  <defs
     id="defs2">
    <inkscape:perspective
       sodipodi:type="inkscape:persp3d"
       inkscape:vp_x="-82.448193 : 60.961883 : 1"
       inkscape:vp_y="0 : 1962.1185 : 0"
       inkscape:vp_z="70.243792 : 67.718508 : 1"
       inkscape:persp3d-origin="36.215816 : 15.441198 : 1"
       id="perspective849" />
    <filter
       inkscape:label="Light Eraser"
       style="color-interpolation-filters:sRGB;"
       id="filter1007">
      <feColorMatrix
         values="1 0 0 0 0 0 1 0 0 0 0 0 1 0 0 -21.25 -71.54 -7.21 50 0 "
         result="colormatrix"
         id="feColorMatrix1003" />
      <feComposite
         in2="colormatrix"
         operator="arithmetic"
         k2="1"
         result="composite"
         id="feComposite1005" />
    </filter>
  </defs>
  <sodipodi:namedview
     id="base"
     pagecolor="#000000"
     bordercolor="#666666"
     borderopacity="1.0"
     inkscape:pageopacity="0"
     inkscape:pageshadow="2"
     inkscape:zoom="1.0732938"
     inkscape:cx="116.59586"
     inkscape:cy="406.36449"
     inkscape:document-units="px"
     inkscape:current-layer="layer1"
     inkscape:document-rotation="0"
     showgrid="false"
     units="px"
     inkscape:snap-center="false"
     inkscape:object-paths="true"
     inkscape:snap-object-midpoints="true"
     showguides="true"
     inkscape:guide-bbox="true"
     inkscape:window-width="1596"
     inkscape:window-height="843"
     inkscape:window-x="0"
     inkscape:window-y="0"
     inkscape:window-maximized="1"
     fit-margin-top="0"
     fit-margin-left="0"
     fit-margin-right="0"
     fit-margin-bottom="0"
     inkscape:pagecheckerboard="false" />
  <metadata
     id="metadata5">
    <rdf:RDF>
      <cc:Work
         rdf:about="">
        <dc:format>image/svg+xml</dc:format>
        <dc:type
           rdf:resource="http://purl.org/dc/dcmitype/StillImage" />
        <dc:title />
      </cc:Work>
    </rdf:RDF>
  </metadata>
  <g
     inkscape:label="Layer 1"
     inkscape:groupmode="layer"
     id="layer1"
     transform="translate(-93.894531,-77.52539)"
     style="opacity:0.99684531">
    <path
       id="path839"
       style="fill:#cccccc;fill-rule:evenodd;stroke-width:1.08081"
       d="m 263.85902,77.52539 c 0,0 -30.01235,23.50588 -37.39573,44.72315 -10.46474,-3.05352 -21.48856,-4.61409 -32.59429,-4.61413 -10.56245,0 -21.05452,1.4116 -31.06477,4.17947 -9.51558,-20.47895 -37.66498,-44.28849 -37.66498,-44.28849 5.03461,30.11515 -17.74715,63.19519 -15.8867,80.52273 -8.34639,12.04783 -12.73495,25.67071 -12.734989,39.53177 1.8e-5,21.20288 10.256659,41.53732 28.513579,56.53001 18.25695,14.99268 43.01866,23.41549 68.83786,23.41549 25.81919,0 50.58091,-8.42281 68.83784,-23.41549 18.25694,-14.99269 28.51358,-35.32713 28.5136,-56.53001 -4e-5,-13.08795 -3.37123,-27.97579 -10.85338,-39.53177 9.40377,-14.92243 -22.13709,-46.852 -16.50804,-80.52273 z"
       sodipodi:nodetypes="cccccccsssccc" />
    <path
       style="fill:#333333;fill-opacity:1;fill-rule:evenodd;stroke:none;stroke-width:0.190872px;stroke-linecap:butt;stroke-linejoin:miter;stroke-opacity:1"
       d="m 121.63849,163.33496 c 16.48718,8.65585 36.40563,-7.51451 40.05957,-24.53207 3.65396,-17.01754 -32.36295,-47.477153 -32.36295,-47.477153 4.99121,29.855303 -24.1838,63.353433 -7.69662,72.009223 z"
       id="path841-3-6"
       sodipodi:nodetypes="zzcz"
       inkscape:transform-center-x="43.583041"
       inkscape:transform-center-y="-2.306045" />
    <path
       style="fill:#333333;fill-opacity:1;fill-rule:evenodd;stroke:none;stroke-width:0.190872px;stroke-linecap:butt;stroke-linejoin:miter;stroke-opacity:1"
       d="m 267.83045,163.33496 c -16.48718,8.65585 -36.40564,-7.51451 -40.05959,-24.53207 -3.65394,-17.01754 32.36294,-47.477153 32.36294,-47.477153 -4.99117,29.855303 24.18382,63.353433 7.69665,72.009223 z"
       id="path841-3-6-7"
       sodipodi:nodetypes="zzcz"
       inkscape:transform-center-x="-43.583035"
       inkscape:transform-center-y="-2.3060448" />
    <path
       id="path890-1"
       style="fill:#333333;fill-opacity:1;fill-rule:evenodd;stroke:none;stroke-width:0.156722px;stroke-linecap:butt;stroke-linejoin:miter;stroke-opacity:1"
       d="m 239.18115,175.86404 c 2.33554,-0.0407 4.6722,0.0169 7.00417,0.14901 1.74766,6.88812 2.04354,14.75529 -1.84842,20.9998 -3.77689,6.13051 -10.85549,9.34517 -17.77246,10.31794 -5.64916,0.75079 -11.63187,0.54379 -16.91112,-1.78285 -1.57042,-0.7747 -3.73732,-2.16869 -3.18817,-4.21388 0.8185,-4.87565 1.63939,-9.95747 4.4887,-14.13124 3e-5,-2e-5 28.2273,-11.33878 28.2273,-11.33878 z"
       sodipodi:nodetypes="cccccccc" />
    <path
       id="path916-2"
       style="fill:#808080;fill-opacity:1;fill-rule:evenodd;stroke:none;stroke-width:0.156722px;stroke-linecap:butt;stroke-linejoin:miter;stroke-opacity:1"
       d="m 239.18115,175.86404 c 4.78953,4.05256 6.98394,10.86413 5.45572,16.95019 -1.40545,6.12675 -6.46781,11.20879 -12.59118,12.63327 -6.07338,1.54631 -12.88374,-0.6169 -16.95371,-5.38185 -3.06298,-3.48202 -4.59626,-8.24808 -4.1381,-12.86285 3.89595,-5.99069 10.85368,-9.07006 17.66307,-10.32433 3.48006,-0.66584 7.0248,-0.95068 10.5642,-1.01443 z" />
    <path
       id="path890-1-0"
       style="fill:#333333;fill-opacity:1;fill-rule:evenodd;stroke:none;stroke-width:0.156722px;stroke-linecap:butt;stroke-linejoin:miter;stroke-opacity:1"
       d="m 148.55686,175.76119 c -2.33552,-0.0407 -4.67221,0.0168 -7.00417,0.14904 -1.74765,6.88808 -2.04352,14.75527 1.84845,20.9998 3.77685,6.13048 10.85545,9.34516 17.77241,10.31795 5.64919,0.75079 11.63188,0.54376 16.91112,-1.78288 1.57047,-0.77469 3.73733,-2.16868 3.18819,-4.21385 -0.8185,-4.87566 -1.63936,-9.95749 -4.48871,-14.13127 -2e-5,-2e-5 -28.22729,-11.33879 -28.22729,-11.33879 z"
       sodipodi:nodetypes="cccccccc" />
    <path
       id="path916-2-9"
       style="fill:#808080;fill-opacity:1;fill-rule:evenodd;stroke:none;stroke-width:0.156722px;stroke-linecap:butt;stroke-linejoin:miter;stroke-opacity:1"
       d="m 148.55686,175.76119 c -4.78951,4.05258 -6.98393,10.86415 -5.45572,16.95023 1.40544,6.12673 6.46784,11.20875 12.59119,12.63324 6.07336,1.54634 12.88375,-0.61687 16.95371,-5.38185 3.06299,-3.48204 4.59624,-8.24809 4.13809,-12.86285 -3.89596,-5.99069 -10.8537,-9.07005 -17.66306,-10.3243 -3.48006,-0.66588 -7.02479,-0.95071 -10.56421,-1.01447 z" />
    <path
       id="path1018"
       style="fill:#333333;fill-opacity:1;fill-rule:evenodd;stroke:none;stroke-width:0.238533px;stroke-linecap:butt;stroke-linejoin:miter;stroke-opacity:1"
       d="m 190.02593,231.12539 a 4.6595352,4.6595352 0 0 0 0.0298,-0.0186 4.6595352,4.6595352 0 0 0 0.0746,-0.048 4.6595352,4.6595352 0 0 0 0.0736,-0.0494 4.6595352,4.6595352 0 0 0 0.0726,-0.0508 4.6595352,4.6595352 0 0 0 0.0713,-0.0522 4.6595352,4.6595352 0 0 0 0.0709,-0.0532 4.6595352,4.6595352 0 0 0 0.0699,-0.055 4.6595352,4.6595352 0 0 0 0.0684,-0.0564 4.6595352,4.6595352 0 0 0 0.0676,-0.0573 4.6595352,4.6595352 0 0 0 0.0662,-0.0587 4.6595352,4.6595352 0 0 0 0.0652,-0.0601 4.6595352,4.6595352 0 0 0 0.0643,-0.061 4.6595352,4.6595352 0 0 0 0.0629,-0.0624 4.6595352,4.6595352 0 0 0 0.0619,-0.0639 4.6595352,4.6595352 0 0 0 0.0606,-0.0647 4.6595352,4.6595352 0 0 0 0.0592,-0.0657 4.6595352,4.6595352 0 0 0 0.0577,-0.0671 4.6595352,4.6595352 0 0 0 0.0569,-0.068 4.6595352,4.6595352 0 0 0 0.0555,-0.0694 4.6595352,4.6595352 0 0 0 0.054,-0.0704 4.6595352,4.6595352 0 0 0 0.0531,-0.0713 4.6595352,4.6595352 0 0 0 0.0512,-0.0722 4.6595352,4.6595352 0 0 0 0.0498,-0.0731 4.6595352,4.6595352 0 0 0 0.049,-0.0741 4.6595352,4.6595352 0 0 0 0.047,-0.0751 4.6595352,4.6595352 0 0 0 0.0457,-0.0759 4.6595352,4.6595352 0 0 0 0.0443,-0.0769 4.6595352,4.6595352 0 0 0 0.0428,-0.0773 4.6595352,4.6595352 0 0 0 0.0415,-0.0788 4.6595352,4.6595352 0 0 0 0.0396,-0.0793 4.6595352,4.6595352 0 0 0 0.0387,-0.0796 4.6595352,4.6595352 0 0 0 0.0368,-0.0806 4.6595352,4.6595352 0 0 0 0.0349,-0.0815 4.6595352,4.6595352 0 0 0 0.034,-0.082 4.6595352,4.6595352 0 0 0 0.0321,-0.0825 4.6595352,4.6595352 0 0 0 0.0303,-0.0834 4.6595352,4.6595352 0 0 0 0.0289,-0.0838 4.6595352,4.6595352 0 0 0 0.0275,-0.0843 4.6595352,4.6595352 0 0 0 0.0256,-0.0848 4.6595352,4.6595352 0 0 0 0.0242,-0.0853 4.6595352,4.6595352 0 0 0 0.0228,-0.0858 4.6595352,4.6595352 0 0 0 0.0205,-0.0862 4.6595352,4.6595352 0 0 0 0.0196,-0.0866 4.6595352,4.6595352 0 0 0 0.0172,-0.0866 4.6595352,4.6595352 0 0 0 0.0163,-0.0871 4.6595352,4.6595352 0 0 0 0.014,-0.0876 4.6595352,4.6595352 0 0 0 0.0126,-0.0876 4.6595352,4.6595352 0 0 0 0.0112,-0.088 4.6595352,4.6595352 0 0 0 0.01,-0.0885 4.6595352,4.6595352 0 0 0 0.008,-0.0881 4.6595352,4.6595352 0 0 0 0.006,-0.0885 4.6595352,4.6595352 0 0 0 0.004,-0.0885 4.6595352,4.6595352 0 0 0 0.002,-0.0885 4.6595352,4.6595352 0 0 0 9.5e-4,-0.0885 4.6595352,4.6595352 0 0 0 -4.7e-4,-0.0498 4.6595352,4.6595352 0 0 0 -9.8e-4,-0.0885 4.6595352,4.6595352 0 0 0 -0.004,-0.089 4.6595352,4.6595352 0 0 0 -0.005,-0.0885 4.6595352,4.6595352 0 0 0 -0.007,-0.0881 4.6595352,4.6595352 0 0 0 -0.009,-0.0885 4.6595352,4.6595352 0 0 0 -0.0102,-0.0881 4.6595352,4.6595352 0 0 0 -0.0117,-0.0876 4.6595352,4.6595352 0 0 0 -0.0135,-0.0876 4.6595352,4.6595352 0 0 0 -0.0154,-0.0876 4.6595352,4.6595352 0 0 0 -0.0168,-0.0871 4.6595352,4.6595352 0 0 0 -0.0186,-0.0866 4.6595352,4.6595352 0 0 0 -0.02,-0.0862 4.6595352,4.6595352 0 0 0 -0.0219,-0.0858 4.6595352,4.6595352 0 0 0 -0.0233,-0.0858 4.6595352,4.6595352 0 0 0 -0.0252,-0.0848 4.6595352,4.6595352 0 0 0 -0.0266,-0.0848 4.6595352,4.6595352 0 0 0 -0.0284,-0.0838 4.6595352,4.6595352 0 0 0 -0.0298,-0.0834 4.6595352,4.6595352 0 0 0 -0.0316,-0.0829 4.6595352,4.6595352 0 0 0 -0.0331,-0.0825 4.6595352,4.6595352 0 0 0 -0.0345,-0.0816 4.6595352,4.6595352 0 0 0 -0.0358,-0.0811 4.6595352,4.6595352 0 0 0 -0.0378,-0.0801 4.6595352,4.6595352 0 0 0 -0.0391,-0.0796 4.6595352,4.6595352 0 0 0 -0.041,-0.0788 4.6595352,4.6595352 0 0 0 -0.042,-0.0778 4.6595352,4.6595352 0 0 0 -0.0438,-0.0774 4.6595352,4.6595352 0 0 0 -0.0452,-0.0764 4.6595352,4.6595352 0 0 0 -0.0466,-0.0754 4.6595352,4.6595352 0 0 0 -0.048,-0.0746 4.6595352,4.6595352 0 0 0 -0.0494,-0.0736 4.6595352,4.6595352 0 0 0 -0.0508,-0.0726 4.6595352,4.6595352 0 0 0 -0.0522,-0.0713 4.6595352,4.6595352 0 0 0 -0.0531,-0.0708 4.6595352,4.6595352 0 0 0 -0.055,-0.0699 4.6595352,4.6595352 0 0 0 -0.0564,-0.0685 4.6595352,4.6595352 0 0 0 -0.0573,-0.0676 4.6595352,4.6595352 0 0 0 -0.0587,-0.0661 4.6595352,4.6595352 0 0 0 -0.0601,-0.0652 4.6595352,4.6595352 0 0 0 -0.061,-0.0643 4.6595352,4.6595352 0 0 0 -0.0624,-0.0629 4.6595352,4.6595352 0 0 0 -0.0639,-0.0619 4.6595352,4.6595352 0 0 0 -0.0647,-0.0606 4.6595352,4.6595352 0 0 0 -0.0657,-0.0592 4.6595352,4.6595352 0 0 0 -0.0671,-0.0577 4.6595352,4.6595352 0 0 0 -0.068,-0.0568 4.6595352,4.6595352 0 0 0 -0.0694,-0.0555 4.6595352,4.6595352 0 0 0 -0.0704,-0.054 4.6595352,4.6595352 0 0 0 -0.0713,-0.0532 4.6595352,4.6595352 0 0 0 -0.0722,-0.0512 4.6595352,4.6595352 0 0 0 -0.0731,-0.0498 4.6595352,4.6595352 0 0 0 -0.0741,-0.049 4.6595352,4.6595352 0 0 0 -0.0751,-0.047 4.6595352,4.6595352 0 0 0 -0.0759,-0.0457 4.6595352,4.6595352 0 0 0 -0.0769,-0.0443 4.6595352,4.6595352 0 0 0 -0.0773,-0.0428 4.6595352,4.6595352 0 0 0 -0.0787,-0.0415 4.6595352,4.6595352 0 0 0 -0.0793,-0.0396 4.6595352,4.6595352 0 0 0 -0.0796,-0.0387 4.6595352,4.6595352 0 0 0 -0.0806,-0.0368 4.6595352,4.6595352 0 0 0 -0.0816,-0.0349 4.6595352,4.6595352 0 0 0 -0.082,-0.034 4.6595352,4.6595352 0 0 0 -0.0825,-0.0321 4.6595352,4.6595352 0 0 0 -0.0834,-0.0303 4.6595352,4.6595352 0 0 0 -0.0838,-0.0289 4.6595352,4.6595352 0 0 0 -0.0843,-0.0275 4.6595352,4.6595352 0 0 0 -0.0848,-0.0256 4.6595352,4.6595352 0 0 0 -0.0853,-0.0242 4.6595352,4.6595352 0 0 0 -0.0858,-0.0228 4.6595352,4.6595352 0 0 0 -0.0862,-0.0205 4.6595352,4.6595352 0 0 0 -0.0866,-0.0196 4.6595352,4.6595352 0 0 0 -0.0866,-0.0172 4.6595352,4.6595352 0 0 0 -0.0871,-0.0164 4.6595352,4.6595352 0 0 0 -0.0876,-0.014 4.6595352,4.6595352 0 0 0 -0.0876,-0.0126 4.6595352,4.6595352 0 0 0 -0.0881,-0.0112 4.6595352,4.6595352 0 0 0 -0.088,-0.01 4.6595352,4.6595352 0 0 0 -0.0885,-0.008 4.6595352,4.6595352 0 0 0 -0.0885,-0.006 4.6595352,4.6595352 0 0 0 -0.0885,-0.004 4.6595352,4.6595352 0 0 0 -0.0885,-0.002 4.6595352,4.6595352 0 0 0 -0.0885,-9.5e-4 4.6595352,4.6595352 0 0 0 -0.0498,4.8e-4 4.6595352,4.6595352 0 0 0 -0.0885,9.7e-4 4.6595352,4.6595352 0 0 0 -0.089,0.004 4.6595352,4.6595352 0 0 0 -0.0885,0.005 4.6595352,4.6595352 0 0 0 -0.0881,0.007 4.6595352,4.6595352 0 0 0 -0.0885,0.009 4.6595352,4.6595352 0 0 0 -0.0881,0.0102 4.6595352,4.6595352 0 0 0 -0.0876,0.0117 4.6595352,4.6595352 0 0 0 -0.0876,0.0135 4.6595352,4.6595352 0 0 0 -0.0876,0.0154 4.6595352,4.6595352 0 0 0 -0.0871,0.0168 4.6595352,4.6595352 0 0 0 -0.0866,0.0186 4.6595352,4.6595352 0 0 0 -0.0862,0.0201 4.6595352,4.6595352 0 0 0 -0.0857,0.0219 4.6595352,4.6595352 0 0 0 -0.0858,0.0233 4.6595352,4.6595352 0 0 0 -0.0848,0.0251 4.6595352,4.6595352 0 0 0 -0.0848,0.0266 4.6595352,4.6595352 0 0 0 -0.0839,0.0284 4.6595352,4.6595352 0 0 0 -0.0834,0.0298 4.6595352,4.6595352 0 0 0 -0.0829,0.0316 4.6595352,4.6595352 0 0 0 -0.0825,0.0331 4.6595352,4.6595352 0 0 0 -0.0815,0.0345 4.6595352,4.6595352 0 0 0 -0.0811,0.0359 4.6595352,4.6595352 0 0 0 -0.0801,0.0378 4.6595352,4.6595352 0 0 0 -0.0796,0.0391 4.6595352,4.6595352 0 0 0 -0.0788,0.041 4.6595352,4.6595352 0 0 0 -0.0778,0.042 4.6595352,4.6595352 0 0 0 -0.0773,0.0438 4.6595352,4.6595352 0 0 0 -0.0764,0.0452 4.6595352,4.6595352 0 0 0 -0.0457,0.0279 z" />
    <path
       id="path1047"
       style="fill:#808080;fill-opacity:1;fill-rule:evenodd;stroke:none;stroke-width:0.238533px;stroke-linecap:butt;stroke-linejoin:miter;stroke-opacity:1"
       d="m 181.27286,217.0058 3.8431,6.19909 c 0.0152,-0.01 0.0304,-0.0187 0.0457,-0.0279 0.0253,-0.0153 0.0508,-0.0304 0.0764,-0.0452 0.0256,-0.0149 0.0514,-0.0294 0.0773,-0.0438 0.0258,-0.0142 0.0517,-0.0282 0.0778,-0.042 0.0261,-0.0139 0.0524,-0.0275 0.0788,-0.041 0.0265,-0.0133 0.053,-0.0264 0.0796,-0.0391 0.0266,-0.0129 0.0533,-0.0254 0.0801,-0.0378 0.0269,-0.0122 0.0539,-0.0241 0.0811,-0.0358 0.0271,-0.0118 0.0542,-0.0233 0.0816,-0.0345 0.0274,-0.0113 0.0549,-0.0223 0.0825,-0.0331 0.0276,-0.0108 0.0552,-0.0214 0.0829,-0.0316 0.0277,-0.0102 0.0555,-0.0202 0.0834,-0.0298 0.0279,-0.01 0.0558,-0.0192 0.0838,-0.0284 0.0281,-0.009 0.0565,-0.0179 0.0848,-0.0266 0.0282,-0.009 0.0565,-0.017 0.0848,-0.0251 0.0285,-0.008 0.0571,-0.0158 0.0858,-0.0233 0.0285,-0.008 0.057,-0.0149 0.0858,-0.0219 0.0286,-0.007 0.0574,-0.0136 0.0862,-0.02 0.0288,-0.007 0.0577,-0.0127 0.0866,-0.0186 0.029,-0.006 0.058,-0.0115 0.0871,-0.0168 0.0291,-0.006 0.0583,-0.0105 0.0876,-0.0154 0.0291,-0.005 0.0583,-0.01 0.0876,-0.0135 0.0291,-0.004 0.0583,-0.008 0.0876,-0.0117 0.0293,-0.004 0.0587,-0.007 0.088,-0.0102 0.0295,-0.003 0.059,-0.006 0.0885,-0.009 0.0293,-0.003 0.0587,-0.005 0.0881,-0.007 0.0295,-0.002 0.059,-0.004 0.0885,-0.005 0.0297,-9.7e-4 0.0593,-0.003 0.089,-0.004 0.0295,-7.2e-4 0.059,-9.8e-4 0.0885,-9.8e-4 0.0166,-2.4e-4 0.0332,-4.7e-4 0.0498,-4.7e-4 0.0295,3e-5 0.059,2.3e-4 0.0885,9.5e-4 0.0295,4.8e-4 0.059,9.7e-4 0.0885,0.002 0.0295,9.7e-4 0.059,0.003 0.0885,0.004 0.0295,0.002 0.059,0.004 0.0885,0.006 0.0295,0.002 0.059,0.005 0.0885,0.008 0.0294,0.003 0.0587,0.006 0.0881,0.01 0.0294,0.004 0.0587,0.007 0.0881,0.0112 0.0292,0.004 0.0584,0.008 0.0876,0.0126 0.0292,0.005 0.0584,0.009 0.0876,0.014 0.0291,0.005 0.0581,0.0106 0.0871,0.0164 0.0289,0.006 0.0578,0.0112 0.0866,0.0172 0.0289,0.006 0.0578,0.0128 0.0867,0.0196 0.0288,0.007 0.0575,0.0133 0.0862,0.0204 0.0286,0.008 0.0572,0.015 0.0858,0.0228 0.0285,0.008 0.057,0.0159 0.0853,0.0242 0.0283,0.008 0.0566,0.0168 0.0848,0.0256 0.0282,0.009 0.0563,0.0181 0.0843,0.0275 0.028,0.01 0.056,0.019 0.0838,0.0289 0.0278,0.01 0.0557,0.0199 0.0834,0.0303 0.0275,0.0104 0.0551,0.0212 0.0824,0.0321 0.0275,0.0111 0.0548,0.0224 0.082,0.034 0.0273,0.0114 0.0544,0.0231 0.0816,0.035 0.027,0.012 0.0538,0.0242 0.0806,0.0368 0.0267,0.0127 0.0533,0.0255 0.0796,0.0386 0.0265,0.013 0.053,0.0262 0.0792,0.0396 0.0264,0.0135 0.0526,0.0274 0.0788,0.0415 0.0259,0.014 0.0517,0.0283 0.0773,0.0428 0.0258,0.0145 0.0514,0.0293 0.0769,0.0443 0.0255,0.015 0.0507,0.0302 0.0759,0.0457 0.0251,0.0155 0.0501,0.0311 0.075,0.047 0.0248,0.0161 0.0496,0.0324 0.0741,0.0489 0.0245,0.0164 0.049,0.033 0.0731,0.0498 0.0242,0.0168 0.0483,0.034 0.0722,0.0512 0.0239,0.0175 0.0477,0.0352 0.0713,0.0532 0.0236,0.0178 0.047,0.0358 0.0704,0.054 0.0233,0.0183 0.0464,0.0367 0.0694,0.0555 0.0229,0.0187 0.0456,0.0377 0.068,0.0568 0.0226,0.0191 0.0449,0.0383 0.0671,0.0577 0.0221,0.0195 0.044,0.0392 0.0657,0.0592 0.0218,0.02 0.0434,0.0402 0.0647,0.0606 0.0215,0.0204 0.0427,0.0411 0.0639,0.0619 0.021,0.0207 0.0419,0.0418 0.0624,0.0629 0.0205,0.0212 0.0409,0.0426 0.061,0.0642 0.0202,0.0215 0.0403,0.0433 0.0601,0.0652 0.0198,0.0219 0.0393,0.0439 0.0587,0.0662 0.0193,0.0223 0.0385,0.0449 0.0573,0.0676 0.019,0.0226 0.0378,0.0455 0.0564,0.0684 0.0185,0.0231 0.0369,0.0464 0.055,0.0699 0.0179,0.0235 0.0356,0.047 0.0532,0.0708 0.0176,0.0236 0.035,0.0474 0.0522,0.0713 0.0171,0.024 0.0341,0.0483 0.0508,0.0727 0.0166,0.0243 0.0331,0.049 0.0494,0.0736 0.0163,0.0247 0.0322,0.0495 0.048,0.0746 0.0158,0.025 0.0314,0.0501 0.0466,0.0754 0.0153,0.0253 0.0304,0.0508 0.0452,0.0764 0.0148,0.0256 0.0294,0.0514 0.0438,0.0773 0.0142,0.0258 0.0282,0.0517 0.042,0.0778 0.0139,0.0261 0.0275,0.0524 0.041,0.0787 0.0133,0.0265 0.0264,0.053 0.0391,0.0796 0.0129,0.0266 0.0254,0.0533 0.0378,0.0801 0.0123,0.0269 0.0241,0.0539 0.0359,0.0811 0.0118,0.0271 0.0233,0.0542 0.0345,0.0815 0.0113,0.0274 0.0223,0.0549 0.0331,0.0825 0.0108,0.0275 0.0214,0.0552 0.0316,0.0829 0.0102,0.0277 0.0202,0.0555 0.0298,0.0834 0.01,0.0278 0.0192,0.0558 0.0284,0.0838 0.009,0.0281 0.018,0.0565 0.0266,0.0848 0.009,0.0282 0.017,0.0565 0.0251,0.0848 0.008,0.0285 0.0159,0.057 0.0233,0.0858 0.008,0.0285 0.0149,0.0571 0.0219,0.0857 0.007,0.0286 0.0136,0.0574 0.0201,0.0862 0.007,0.0288 0.0127,0.0577 0.0186,0.0866 0.006,0.029 0.0115,0.058 0.0167,0.0871 0.006,0.0291 0.0105,0.0583 0.0154,0.0876 0.005,0.0291 0.01,0.0583 0.0135,0.0876 0.004,0.0292 0.008,0.0583 0.0117,0.0876 0.004,0.0293 0.007,0.0587 0.0102,0.088 0.003,0.0295 0.006,0.059 0.009,0.0885 0.003,0.0293 0.005,0.0587 0.007,0.0881 0.002,0.0295 0.004,0.059 0.005,0.0885 9.7e-4,0.0297 0.003,0.0593 0.004,0.089 7.1e-4,0.0295 9.7e-4,0.059 9.7e-4,0.0885 2.4e-4,0.0166 4.8e-4,0.0332 4.8e-4,0.0498 -4e-5,0.0295 -2.4e-4,0.059 -9.5e-4,0.0885 -4.8e-4,0.0295 -9.8e-4,0.059 -0.002,0.0885 -9.7e-4,0.0295 -0.003,0.059 -0.004,0.0885 -0.002,0.0295 -0.004,0.059 -0.006,0.0885 -0.002,0.0294 -0.005,0.0587 -0.008,0.088 -0.003,0.0295 -0.006,0.0591 -0.01,0.0885 -0.004,0.0294 -0.007,0.0587 -0.0112,0.0881 -0.004,0.0292 -0.008,0.0584 -0.0126,0.0876 -0.005,0.0292 -0.009,0.0584 -0.014,0.0876 -0.005,0.0291 -0.0106,0.0581 -0.0164,0.0871 -0.006,0.0289 -0.0112,0.0578 -0.0172,0.0866 -0.006,0.0289 -0.0128,0.0578 -0.0196,0.0866 -0.007,0.0288 -0.0133,0.0575 -0.0204,0.0862 -0.008,0.0286 -0.015,0.0572 -0.0228,0.0858 -0.008,0.0285 -0.0159,0.057 -0.0242,0.0853 -0.008,0.0283 -0.0168,0.0567 -0.0256,0.0848 -0.009,0.0282 -0.0181,0.0563 -0.0275,0.0843 -0.01,0.028 -0.019,0.056 -0.0289,0.0838 -0.01,0.0279 -0.02,0.0557 -0.0303,0.0834 -0.0104,0.0276 -0.0212,0.0551 -0.0321,0.0825 -0.0111,0.0275 -0.0224,0.0548 -0.034,0.082 -0.0114,0.0273 -0.0231,0.0544 -0.035,0.0816 -0.012,0.027 -0.0242,0.0538 -0.0368,0.0806 -0.0127,0.0267 -0.0255,0.0532 -0.0386,0.0796 -0.0129,0.0265 -0.0262,0.053 -0.0396,0.0793 -0.0135,0.0264 -0.0274,0.0527 -0.0415,0.0788 -0.014,0.0259 -0.0283,0.0517 -0.0428,0.0773 -0.0145,0.0258 -0.0293,0.0514 -0.0443,0.0769 -0.015,0.0255 -0.0302,0.0508 -0.0457,0.0759 -0.0155,0.0251 -0.0311,0.0501 -0.047,0.0751 -0.0161,0.0248 -0.0324,0.0496 -0.0489,0.0741 -0.0163,0.0245 -0.033,0.049 -0.0498,0.0731 -0.0168,0.0243 -0.034,0.0483 -0.0512,0.0722 -0.0175,0.0239 -0.0351,0.0477 -0.0531,0.0713 -0.0178,0.0237 -0.0358,0.047 -0.054,0.0704 -0.0182,0.0233 -0.0367,0.0464 -0.0554,0.0694 -0.0187,0.0229 -0.0377,0.0456 -0.0568,0.068 -0.0191,0.0225 -0.0383,0.0449 -0.0577,0.0671 -0.0195,0.0221 -0.0392,0.044 -0.0592,0.0657 -0.02,0.0218 -0.0402,0.0433 -0.0606,0.0647 -0.0205,0.0215 -0.0411,0.0427 -0.0619,0.0639 -0.0207,0.021 -0.0418,0.0418 -0.0629,0.0624 -0.0212,0.0205 -0.0426,0.0409 -0.0643,0.061 -0.0216,0.0203 -0.0433,0.0403 -0.0652,0.0601 -0.0219,0.0198 -0.0439,0.0393 -0.0662,0.0587 -0.0223,0.0193 -0.0449,0.0385 -0.0676,0.0573 -0.0226,0.019 -0.0455,0.0378 -0.0684,0.0564 -0.0231,0.0185 -0.0464,0.0369 -0.0699,0.055 -0.0235,0.0179 -0.047,0.0356 -0.0708,0.0532 -0.0236,0.0176 -0.0474,0.035 -0.0713,0.0522 -0.024,0.0171 -0.0483,0.0341 -0.0727,0.0508 -0.0243,0.0167 -0.049,0.0332 -0.0736,0.0494 -0.0247,0.0163 -0.0496,0.0322 -0.0746,0.048 -0.01,0.006 -0.0199,0.0125 -0.0298,0.0186 0,0 1.4119,2.63035 3.84314,2.63035 2.43121,0 3.84305,-2.63035 3.84305,-2.63035 -0.01,-0.006 -0.0199,-0.0124 -0.0298,-0.0186 -0.025,-0.0158 -0.0498,-0.0317 -0.0746,-0.048 -0.0247,-0.0162 -0.0493,-0.0327 -0.0736,-0.0494 -0.0244,-0.0168 -0.0486,-0.0336 -0.0727,-0.0508 -0.024,-0.0171 -0.0477,-0.0346 -0.0713,-0.0522 -0.0238,-0.0175 -0.0474,-0.0351 -0.0708,-0.0532 -0.0235,-0.0181 -0.0467,-0.0364 -0.0699,-0.055 -0.023,-0.0186 -0.0459,-0.0374 -0.0684,-0.0564 -0.0227,-0.0189 -0.0452,-0.038 -0.0676,-0.0573 -0.0222,-0.0194 -0.0443,-0.0389 -0.0661,-0.0587 -0.0219,-0.0199 -0.0437,-0.0398 -0.0652,-0.0601 -0.0216,-0.0202 -0.043,-0.0405 -0.0642,-0.061 -0.0211,-0.0206 -0.0422,-0.0414 -0.0629,-0.0624 -0.0208,-0.0211 -0.0415,-0.0423 -0.0619,-0.0639 -0.0203,-0.0214 -0.0406,-0.043 -0.0606,-0.0647 -0.02,-0.0217 -0.0396,-0.0436 -0.0592,-0.0657 -0.0195,-0.0222 -0.0387,-0.0446 -0.0577,-0.0671 -0.0192,-0.0225 -0.0381,-0.0452 -0.0568,-0.068 -0.0187,-0.023 -0.0372,-0.0461 -0.0555,-0.0694 -0.0182,-0.0233 -0.0362,-0.0467 -0.054,-0.0704 -0.0179,-0.0236 -0.0356,-0.0473 -0.0532,-0.0713 -0.0173,-0.024 -0.0344,-0.048 -0.0512,-0.0722 -0.0168,-0.0242 -0.0335,-0.0486 -0.0498,-0.0731 -0.0165,-0.0245 -0.0328,-0.0493 -0.049,-0.0741 -0.016,-0.0248 -0.0316,-0.0498 -0.047,-0.0751 -0.0155,-0.0252 -0.0307,-0.0505 -0.0457,-0.0759 -0.015,-0.0255 -0.0298,-0.0511 -0.0443,-0.0769 -0.0145,-0.0256 -0.0288,-0.0514 -0.0428,-0.0773 -0.0141,-0.0261 -0.0278,-0.0524 -0.0415,-0.0788 -0.0134,-0.0263 -0.0267,-0.0527 -0.0396,-0.0793 -0.0131,-0.0265 -0.026,-0.053 -0.0386,-0.0796 -0.0126,-0.0268 -0.0248,-0.0536 -0.0368,-0.0806 -0.0119,-0.0271 -0.0236,-0.0542 -0.035,-0.0816 -0.0116,-0.0273 -0.023,-0.0545 -0.034,-0.082 -0.011,-0.0274 -0.0217,-0.0549 -0.0321,-0.0825 -0.0103,-0.0277 -0.0205,-0.0555 -0.0303,-0.0834 -0.01,-0.0278 -0.0195,-0.0558 -0.0289,-0.0838 -0.01,-0.028 -0.0186,-0.0562 -0.0275,-0.0843 -0.009,-0.0282 -0.0173,-0.0565 -0.0256,-0.0848 -0.009,-0.0283 -0.0164,-0.0568 -0.0242,-0.0853 -0.008,-0.0285 -0.0155,-0.057 -0.0228,-0.0858 -0.007,-0.0286 -0.0139,-0.0574 -0.0205,-0.0862 -0.007,-0.0288 -0.0133,-0.0577 -0.0196,-0.0866 -0.006,-0.0288 -0.0118,-0.0577 -0.0172,-0.0866 -0.006,-0.029 -0.0112,-0.058 -0.0164,-0.0871 -0.005,-0.0291 -0.01,-0.0583 -0.014,-0.0876 -0.005,-0.0291 -0.009,-0.0583 -0.0126,-0.0876 -0.004,-0.0293 -0.008,-0.0587 -0.0112,-0.0881 -0.003,-0.0295 -0.007,-0.059 -0.01,-0.0885 -0.003,-0.0293 -0.005,-0.0587 -0.008,-0.088 -0.002,-0.0295 -0.004,-0.059 -0.006,-0.0885 -0.002,-0.0295 -0.003,-0.059 -0.004,-0.0885 -9.7e-4,-0.0295 -0.002,-0.059 -0.002,-0.0885 -7.2e-4,-0.0295 -9.6e-4,-0.059 -9.6e-4,-0.0885 7e-5,-0.0166 2.3e-4,-0.0332 4.8e-4,-0.0498 1.9e-4,-0.0295 7.1e-4,-0.059 9.7e-4,-0.0885 9.7e-4,-0.0297 0.002,-0.0594 0.004,-0.089 9.8e-4,-0.0295 0.003,-0.059 0.005,-0.0885 0.002,-0.0294 0.005,-0.0587 0.007,-0.0881 0.003,-0.0295 0.005,-0.0591 0.009,-0.0885 0.003,-0.0294 0.007,-0.0587 0.0102,-0.088 0.004,-0.0292 0.008,-0.0584 0.0117,-0.0876 0.004,-0.0292 0.009,-0.0584 0.0135,-0.0876 0.005,-0.0292 0.01,-0.0584 0.0154,-0.0876 0.005,-0.0291 0.0109,-0.0581 0.0167,-0.0871 0.006,-0.0289 0.0122,-0.0578 0.0186,-0.0866 0.007,-0.0288 0.0131,-0.0575 0.02,-0.0862 0.007,-0.0286 0.0143,-0.0573 0.0219,-0.0857 0.008,-0.0286 0.0153,-0.0573 0.0233,-0.0858 0.008,-0.0283 0.0166,-0.0566 0.0251,-0.0848 0.009,-0.0283 0.0174,-0.0567 0.0266,-0.0848 0.009,-0.028 0.0187,-0.056 0.0284,-0.0838 0.01,-0.0279 0.0196,-0.0557 0.0298,-0.0834 0.0103,-0.0277 0.0208,-0.0554 0.0317,-0.0829 0.0107,-0.0276 0.0218,-0.0551 0.0331,-0.0825 0.0112,-0.0273 0.0228,-0.0544 0.0345,-0.0815 0.0117,-0.0272 0.0237,-0.0541 0.0358,-0.0811 0.0124,-0.0269 0.0249,-0.0536 0.0378,-0.0801 0.0128,-0.0267 0.0258,-0.0532 0.0391,-0.0796 0.0134,-0.0264 0.0271,-0.0526 0.041,-0.0787 0.0137,-0.0261 0.0277,-0.052 0.042,-0.0778 0.0143,-0.0259 0.0289,-0.0517 0.0438,-0.0773 0.0148,-0.0256 0.0299,-0.0511 0.0452,-0.0764 0.0153,-0.0253 0.0309,-0.0504 0.0466,-0.0754 0.0158,-0.025 0.0317,-0.0498 0.048,-0.0746 0.0163,-0.0247 0.0327,-0.0493 0.0494,-0.0736 0.0166,-0.0243 0.0336,-0.0486 0.0508,-0.0727 0.0171,-0.024 0.0346,-0.0477 0.0522,-0.0713 0.0175,-0.0238 0.0351,-0.0474 0.0531,-0.0708 0.0181,-0.0235 0.0364,-0.0467 0.055,-0.0699 0.0186,-0.023 0.0374,-0.0459 0.0564,-0.0684 0.0189,-0.0227 0.038,-0.0452 0.0573,-0.0676 0.0194,-0.0222 0.0389,-0.0443 0.0587,-0.0662 0.0199,-0.0219 0.0398,-0.0437 0.0601,-0.0652 0.0202,-0.0216 0.0405,-0.043 0.061,-0.0642 0.0206,-0.0211 0.0414,-0.0422 0.0624,-0.0629 0.0211,-0.0208 0.0423,-0.0415 0.0639,-0.0619 0.0214,-0.0203 0.043,-0.0406 0.0647,-0.0606 0.0217,-0.02 0.0436,-0.0396 0.0657,-0.0592 0.0222,-0.0195 0.0446,-0.0387 0.0671,-0.0577 0.0225,-0.0192 0.0452,-0.0381 0.068,-0.0568 0.023,-0.0187 0.0461,-0.0372 0.0694,-0.0555 0.0233,-0.0182 0.0467,-0.0362 0.0704,-0.054 0.0236,-0.0179 0.0473,-0.0356 0.0713,-0.0532 0.0239,-0.0173 0.048,-0.0344 0.0722,-0.0512 0.0242,-0.0169 0.0486,-0.0335 0.0731,-0.0498 0.0245,-0.0165 0.0493,-0.0328 0.0741,-0.0489 0.0248,-0.0159 0.0498,-0.0316 0.075,-0.047 0.0251,-0.0155 0.0505,-0.0307 0.0759,-0.0457 0.0255,-0.015 0.0511,-0.0298 0.0769,-0.0443 0.0256,-0.0145 0.0514,-0.0288 0.0773,-0.0428 0.0261,-0.0141 0.0524,-0.0278 0.0787,-0.0415 0.0263,-0.0134 0.0527,-0.0267 0.0791,-0.0396 0.0265,-0.0131 0.053,-0.026 0.0796,-0.0386 0.0268,-0.0126 0.0536,-0.0248 0.0806,-0.0368 0.0271,-0.0119 0.0542,-0.0236 0.0816,-0.035 0.0273,-0.0116 0.0545,-0.023 0.082,-0.034 0.0274,-0.011 0.0549,-0.0217 0.0825,-0.0321 0.0277,-0.0103 0.0555,-0.0204 0.0834,-0.0303 0.0278,-0.01 0.0558,-0.0195 0.0838,-0.0289 0.028,-0.01 0.0562,-0.0186 0.0843,-0.0275 0.0282,-0.009 0.0565,-0.0173 0.0848,-0.0256 0.0283,-0.009 0.0567,-0.0165 0.0853,-0.0242 0.0285,-0.008 0.057,-0.0155 0.0858,-0.0228 0.0286,-0.007 0.0574,-0.0139 0.0862,-0.0204 0.0288,-0.007 0.0577,-0.0133 0.0866,-0.0196 0.0288,-0.006 0.0577,-0.0118 0.0866,-0.0172 0.029,-0.006 0.058,-0.0112 0.0871,-0.0164 0.0291,-0.005 0.0583,-0.01 0.0876,-0.014 0.0292,-0.005 0.0583,-0.009 0.0876,-0.0126 0.0293,-0.004 0.0587,-0.008 0.088,-0.0112 0.0293,-0.003 0.0587,-0.007 0.0881,-0.01 0.0295,-0.003 0.059,-0.005 0.0885,-0.008 0.0295,-0.002 0.059,-0.004 0.0885,-0.006 0.0295,-0.002 0.059,-0.003 0.0885,-0.004 0.0295,-9.8e-4 0.059,-0.002 0.0885,-0.002 0.0295,-7.2e-4 0.059,-9.5e-4 0.0885,-9.5e-4 0.0166,6e-5 0.0332,2.2e-4 0.0498,4.7e-4 0.0295,2e-4 0.059,7.1e-4 0.0885,9.8e-4 0.0297,9.5e-4 0.0594,0.002 0.089,0.004 0.0295,9.7e-4 0.059,0.003 0.0885,0.005 0.0294,0.002 0.0587,0.005 0.0881,0.007 0.0295,0.003 0.059,0.005 0.0885,0.009 0.0294,0.003 0.0587,0.007 0.0881,0.0102 0.0292,0.004 0.0584,0.008 0.0876,0.0117 0.0292,0.004 0.0584,0.009 0.0876,0.0135 0.0292,0.005 0.0584,0.01 0.0876,0.0154 0.0291,0.005 0.0581,0.0109 0.0871,0.0168 0.0289,0.006 0.0578,0.0122 0.0867,0.0186 0.0288,0.007 0.0575,0.0131 0.0861,0.02 0.0286,0.007 0.0572,0.0143 0.0858,0.0219 0.0286,0.008 0.0572,0.0153 0.0858,0.0233 0.0283,0.008 0.0566,0.0165 0.0848,0.0251 0.0283,0.009 0.0567,0.0174 0.0848,0.0266 0.028,0.009 0.056,0.0187 0.0838,0.0284 0.0278,0.01 0.0557,0.0196 0.0834,0.0298 0.0277,0.0103 0.0554,0.0208 0.0829,0.0316 0.0275,0.0108 0.0551,0.0218 0.0825,0.0331 0.0273,0.0112 0.0544,0.0228 0.0815,0.0345 0.0272,0.0117 0.0541,0.0237 0.0811,0.0358 0.0269,0.0124 0.0535,0.0249 0.0801,0.0378 0.0267,0.0128 0.0533,0.0258 0.0796,0.0391 0.0264,0.0134 0.0527,0.0271 0.0788,0.041 0.0261,0.0137 0.052,0.0277 0.0778,0.042 0.0259,0.0144 0.0517,0.0289 0.0774,0.0438 0.0256,0.0148 0.0511,0.0299 0.0764,0.0452 0.0153,0.009 0.0305,0.0186 0.0457,0.0279 l 3.84309,-6.19909 c 0,0 -8.39736,-3.89353 -12.59607,-3.89353 -4.19872,0 -12.59615,3.89353 -12.59615,3.89353 z"
       sodipodi:nodetypes="ccssccccccsccccccccccccccccccccccccccccccccccccccccccccccccssccsccscccsssccsccccccsssssccccccsccccccccccccccccccccccccccccccccccccccccccccccccssccsccscccsssccsccccccsssczcsssccccccsccssscccsccsccssccccccccccccccccccccccccccccccccccccccccccccccccsccccccsssssccccccsccssscccsccsccssccccccccccccccccccccccccccccccccccccccccccccccccsccccccsscczc" />
    <path
       id="path1018-0"
       style="fill:#333333;fill-opacity:1;fill-rule:evenodd;stroke:none;stroke-width:0.238533px;stroke-linecap:butt;stroke-linejoin:miter;stroke-opacity:1"
       d="m 197.71216,231.12539 a 4.6595352,4.6595352 0 0 1 -0.0298,-0.0186 4.6595352,4.6595352 0 0 1 -0.0746,-0.048 4.6595352,4.6595352 0 0 1 -0.0736,-0.0494 4.6595352,4.6595352 0 0 1 -0.0727,-0.0508 4.6595352,4.6595352 0 0 1 -0.0713,-0.0522 4.6595352,4.6595352 0 0 1 -0.0708,-0.0532 4.6595352,4.6595352 0 0 1 -0.0699,-0.055 4.6595352,4.6595352 0 0 1 -0.0684,-0.0564 4.6595352,4.6595352 0 0 1 -0.0676,-0.0573 4.6595352,4.6595352 0 0 1 -0.0662,-0.0587 4.6595352,4.6595352 0 0 1 -0.0652,-0.0601 4.6595352,4.6595352 0 0 1 -0.0643,-0.061 4.6595352,4.6595352 0 0 1 -0.0629,-0.0624 4.6595352,4.6595352 0 0 1 -0.0619,-0.0639 4.6595352,4.6595352 0 0 1 -0.0605,-0.0647 4.6595352,4.6595352 0 0 1 -0.0592,-0.0657 4.6595352,4.6595352 0 0 1 -0.0577,-0.0671 4.6595352,4.6595352 0 0 1 -0.0568,-0.068 4.6595352,4.6595352 0 0 1 -0.0554,-0.0694 4.6595352,4.6595352 0 0 1 -0.054,-0.0704 4.6595352,4.6595352 0 0 1 -0.0531,-0.0713 4.6595352,4.6595352 0 0 1 -0.0512,-0.0722 4.6595352,4.6595352 0 0 1 -0.0498,-0.0731 4.6595352,4.6595352 0 0 1 -0.049,-0.0741 4.6595352,4.6595352 0 0 1 -0.047,-0.0751 4.6595352,4.6595352 0 0 1 -0.0457,-0.0759 4.6595352,4.6595352 0 0 1 -0.0443,-0.0769 4.6595352,4.6595352 0 0 1 -0.0428,-0.0773 4.6595352,4.6595352 0 0 1 -0.0415,-0.0788 4.6595352,4.6595352 0 0 1 -0.0396,-0.0793 4.6595352,4.6595352 0 0 1 -0.0386,-0.0796 4.6595352,4.6595352 0 0 1 -0.0368,-0.0806 4.6595352,4.6595352 0 0 1 -0.035,-0.0815 4.6595352,4.6595352 0 0 1 -0.034,-0.082 4.6595352,4.6595352 0 0 1 -0.0321,-0.0825 4.6595352,4.6595352 0 0 1 -0.0303,-0.0834 4.6595352,4.6595352 0 0 1 -0.0289,-0.0838 4.6595352,4.6595352 0 0 1 -0.0274,-0.0843 4.6595352,4.6595352 0 0 1 -0.0256,-0.0848 4.6595352,4.6595352 0 0 1 -0.0242,-0.0853 4.6595352,4.6595352 0 0 1 -0.0228,-0.0858 4.6595352,4.6595352 0 0 1 -0.0204,-0.0862 4.6595352,4.6595352 0 0 1 -0.0196,-0.0866 4.6595352,4.6595352 0 0 1 -0.0172,-0.0866 4.6595352,4.6595352 0 0 1 -0.0163,-0.0871 4.6595352,4.6595352 0 0 1 -0.014,-0.0876 4.6595352,4.6595352 0 0 1 -0.0126,-0.0876 4.6595352,4.6595352 0 0 1 -0.0112,-0.088 4.6595352,4.6595352 0 0 1 -0.01,-0.0885 4.6595352,4.6595352 0 0 1 -0.008,-0.0881 4.6595352,4.6595352 0 0 1 -0.006,-0.0885 4.6595352,4.6595352 0 0 1 -0.004,-0.0885 4.6595352,4.6595352 0 0 1 -0.002,-0.0885 4.6595352,4.6595352 0 0 1 -9.6e-4,-0.0885 4.6595352,4.6595352 0 0 1 4.8e-4,-0.0498 4.6595352,4.6595352 0 0 1 9.6e-4,-0.0885 4.6595352,4.6595352 0 0 1 0.004,-0.089 4.6595352,4.6595352 0 0 1 0.005,-0.0885 4.6595352,4.6595352 0 0 1 0.007,-0.0881 4.6595352,4.6595352 0 0 1 0.009,-0.0885 4.6595352,4.6595352 0 0 1 0.0102,-0.0881 4.6595352,4.6595352 0 0 1 0.0116,-0.0876 4.6595352,4.6595352 0 0 1 0.0135,-0.0876 4.6595352,4.6595352 0 0 1 0.0154,-0.0876 4.6595352,4.6595352 0 0 1 0.0168,-0.0871 4.6595352,4.6595352 0 0 1 0.0186,-0.0866 4.6595352,4.6595352 0 0 1 0.02,-0.0862 4.6595352,4.6595352 0 0 1 0.0219,-0.0858 4.6595352,4.6595352 0 0 1 0.0233,-0.0858 4.6595352,4.6595352 0 0 1 0.0251,-0.0848 4.6595352,4.6595352 0 0 1 0.0266,-0.0848 4.6595352,4.6595352 0 0 1 0.0284,-0.0838 4.6595352,4.6595352 0 0 1 0.0298,-0.0834 4.6595352,4.6595352 0 0 1 0.0316,-0.0829 4.6595352,4.6595352 0 0 1 0.0331,-0.0825 4.6595352,4.6595352 0 0 1 0.0345,-0.0816 4.6595352,4.6595352 0 0 1 0.0359,-0.0811 4.6595352,4.6595352 0 0 1 0.0378,-0.0801 4.6595352,4.6595352 0 0 1 0.0391,-0.0796 4.6595352,4.6595352 0 0 1 0.041,-0.0788 4.6595352,4.6595352 0 0 1 0.042,-0.0778 4.6595352,4.6595352 0 0 1 0.0438,-0.0774 4.6595352,4.6595352 0 0 1 0.0452,-0.0764 4.6595352,4.6595352 0 0 1 0.0466,-0.0754 4.6595352,4.6595352 0 0 1 0.048,-0.0746 4.6595352,4.6595352 0 0 1 0.0494,-0.0736 4.6595352,4.6595352 0 0 1 0.0508,-0.0726 4.6595352,4.6595352 0 0 1 0.0522,-0.0713 4.6595352,4.6595352 0 0 1 0.0532,-0.0708 4.6595352,4.6595352 0 0 1 0.055,-0.0699 4.6595352,4.6595352 0 0 1 0.0564,-0.0685 4.6595352,4.6595352 0 0 1 0.0573,-0.0676 4.6595352,4.6595352 0 0 1 0.0587,-0.0661 4.6595352,4.6595352 0 0 1 0.0601,-0.0652 4.6595352,4.6595352 0 0 1 0.061,-0.0643 4.6595352,4.6595352 0 0 1 0.0624,-0.0629 4.6595352,4.6595352 0 0 1 0.0639,-0.0619 4.6595352,4.6595352 0 0 1 0.0647,-0.0606 4.6595352,4.6595352 0 0 1 0.0657,-0.0592 4.6595352,4.6595352 0 0 1 0.0671,-0.0577 4.6595352,4.6595352 0 0 1 0.068,-0.0568 4.6595352,4.6595352 0 0 1 0.0694,-0.0555 4.6595352,4.6595352 0 0 1 0.0704,-0.054 4.6595352,4.6595352 0 0 1 0.0713,-0.0532 4.6595352,4.6595352 0 0 1 0.0722,-0.0512 4.6595352,4.6595352 0 0 1 0.0731,-0.0498 4.6595352,4.6595352 0 0 1 0.0741,-0.049 4.6595352,4.6595352 0 0 1 0.075,-0.047 4.6595352,4.6595352 0 0 1 0.0759,-0.0457 4.6595352,4.6595352 0 0 1 0.0769,-0.0443 4.6595352,4.6595352 0 0 1 0.0773,-0.0428 4.6595352,4.6595352 0 0 1 0.0788,-0.0415 4.6595352,4.6595352 0 0 1 0.0792,-0.0396 4.6595352,4.6595352 0 0 1 0.0796,-0.0387 4.6595352,4.6595352 0 0 1 0.0806,-0.0368 4.6595352,4.6595352 0 0 1 0.0815,-0.0349 4.6595352,4.6595352 0 0 1 0.082,-0.034 4.6595352,4.6595352 0 0 1 0.0825,-0.0321 4.6595352,4.6595352 0 0 1 0.0834,-0.0303 4.6595352,4.6595352 0 0 1 0.0839,-0.0289 4.6595352,4.6595352 0 0 1 0.0843,-0.0275 4.6595352,4.6595352 0 0 1 0.0848,-0.0256 4.6595352,4.6595352 0 0 1 0.0853,-0.0242 4.6595352,4.6595352 0 0 1 0.0858,-0.0228 4.6595352,4.6595352 0 0 1 0.0862,-0.0205 4.6595352,4.6595352 0 0 1 0.0866,-0.0196 4.6595352,4.6595352 0 0 1 0.0867,-0.0172 4.6595352,4.6595352 0 0 1 0.0871,-0.0164 4.6595352,4.6595352 0 0 1 0.0876,-0.014 4.6595352,4.6595352 0 0 1 0.0876,-0.0126 4.6595352,4.6595352 0 0 1 0.0881,-0.0112 4.6595352,4.6595352 0 0 1 0.088,-0.01 4.6595352,4.6595352 0 0 1 0.0885,-0.008 4.6595352,4.6595352 0 0 1 0.0885,-0.006 4.6595352,4.6595352 0 0 1 0.0885,-0.004 4.6595352,4.6595352 0 0 1 0.0885,-0.002 4.6595352,4.6595352 0 0 1 0.0885,-9.5e-4 4.6595352,4.6595352 0 0 1 0.0498,4.8e-4 4.6595352,4.6595352 0 0 1 0.0885,9.7e-4 4.6595352,4.6595352 0 0 1 0.089,0.004 4.6595352,4.6595352 0 0 1 0.0885,0.005 4.6595352,4.6595352 0 0 1 0.088,0.007 4.6595352,4.6595352 0 0 1 0.0885,0.009 4.6595352,4.6595352 0 0 1 0.0881,0.0102 4.6595352,4.6595352 0 0 1 0.0876,0.0117 4.6595352,4.6595352 0 0 1 0.0876,0.0135 4.6595352,4.6595352 0 0 1 0.0876,0.0154 4.6595352,4.6595352 0 0 1 0.0871,0.0168 4.6595352,4.6595352 0 0 1 0.0866,0.0186 4.6595352,4.6595352 0 0 1 0.0862,0.0201 4.6595352,4.6595352 0 0 1 0.0858,0.0219 4.6595352,4.6595352 0 0 1 0.0857,0.0233 4.6595352,4.6595352 0 0 1 0.0848,0.0251 4.6595352,4.6595352 0 0 1 0.0848,0.0266 4.6595352,4.6595352 0 0 1 0.0838,0.0284 4.6595352,4.6595352 0 0 1 0.0834,0.0298 4.6595352,4.6595352 0 0 1 0.0829,0.0316 4.6595352,4.6595352 0 0 1 0.0825,0.0331 4.6595352,4.6595352 0 0 1 0.0816,0.0345 4.6595352,4.6595352 0 0 1 0.0811,0.0359 4.6595352,4.6595352 0 0 1 0.0801,0.0378 4.6595352,4.6595352 0 0 1 0.0796,0.0391 4.6595352,4.6595352 0 0 1 0.0787,0.041 4.6595352,4.6595352 0 0 1 0.0778,0.042 4.6595352,4.6595352 0 0 1 0.0773,0.0438 4.6595352,4.6595352 0 0 1 0.0764,0.0452 4.6595352,4.6595352 0 0 1 0.0457,0.0279 z" />
    <path
       style="color:#000000;font-style:normal;font-variant:normal;font-weight:normal;font-stretch:normal;font-size:medium;line-height:normal;font-family:sans-serif;font-variant-ligatures:normal;font-variant-position:normal;font-variant-caps:normal;font-variant-numeric:normal;font-variant-alternates:normal;font-variant-east-asian:normal;font-feature-settings:normal;font-variation-settings:normal;text-indent:0;text-align:start;text-decoration:none;text-decoration-line:none;text-decoration-style:solid;text-decoration-color:#000000;letter-spacing:normal;word-spacing:normal;text-transform:none;writing-mode:lr-tb;direction:ltr;text-orientation:mixed;dominant-baseline:auto;baseline-shift:baseline;text-anchor:start;white-space:normal;shape-padding:0;shape-margin:0;inline-size:0;clip-rule:nonzero;display:inline;overflow:visible;visibility:visible;isolation:auto;mix-blend-mode:normal;color-interpolation:sRGB;color-interpolation-filters:linearRGB;solid-color:#000000;solid-opacity:1;vector-effect:none;fill:#333333;fill-opacity:1;fill-rule:evenodd;stroke:none;stroke-width:2.53554;stroke-linecap:round;stroke-linejoin:round;stroke-miterlimit:4;stroke-dasharray:none;stroke-dashoffset:0;stroke-opacity:1;color-rendering:auto;image-rendering:auto;shape-rendering:auto;text-rendering:auto;enable-background:accumulate;stop-color:#000000"
       d="m 167.19122,241.66544 c -0.21687,9.7e-4 -0.43016,0.0493 -0.62166,0.13928 -0.65727,0.30881 -0.9073,1.03069 -0.55851,1.61242 4.65874,7.77162 9.31753,15.54321 13.97635,23.31481 0.48665,0.81151 1.78361,0.8519 2.33349,0.0726 3.84938,-5.45831 7.69876,-10.91663 11.54811,-16.37495 3.84939,5.45817 7.69874,10.91632 11.54809,16.37449 0.5497,0.77932 1.84667,0.73919 2.33354,-0.0722 4.65877,-7.77159 9.31756,-15.54319 13.97636,-23.3148 0.34875,-0.58174 0.0987,-1.30362 -0.55853,-1.61243 -0.65735,-0.30866 -1.47294,-0.0874 -1.82189,0.49432 -4.29379,7.16238 -8.5876,14.32472 -12.88142,21.48708 -3.8176,-5.41341 -7.6352,-10.82685 -11.45281,-16.24028 -0.52749,-0.74849 -1.75875,-0.74874 -2.28667,-4.8e-4 -3.81796,5.41359 -7.63593,10.82719 -11.45386,16.24076 -4.29347,-7.16236 -8.58693,-14.3247 -12.88041,-21.48708 -0.23541,-0.39264 -0.69795,-0.63683 -1.20018,-0.6336 z"
       id="path1156"
       sodipodi:nodetypes="ccccccccccccccccc" />
    <path
       id="path916-2-5"
       style="fill:#ff0000;fill-opacity:1;fill-rule:evenodd;stroke:none;stroke-width:0.156722px;stroke-linecap:butt;stroke-linejoin:miter;stroke-opacity:1"
       d="m 239.18115,375.86404 c 4.78953,4.05256 6.98394,10.86413 5.45572,16.95019 -1.40545,6.12674 -6.46781,11.20879 -12.59118,12.63327 -6.07338,1.54631 -12.88374,-0.6169 -16.95371,-5.38185 -3.06298,-3.48202 -4.59626,-8.24808 -4.1381,-12.86285 3.89595,-5.9907 10.85368,-9.07006 17.66307,-10.32433 3.48006,-0.66585 7.0248,-0.95068 10.5642,-1.01443 z" />
    <path
       id="path916-2-9-7"
       style="fill:#ff0000;fill-opacity:1;fill-rule:evenodd;stroke:none;stroke-width:0.156722px;stroke-linecap:butt;stroke-linejoin:miter;stroke-opacity:1"
       d="m 148.55686,375.76119 c -4.78951,4.05258 -6.98393,10.86414 -5.45572,16.95023 1.40544,6.12673 6.46784,11.20875 12.59119,12.63323 6.07336,1.54635 12.88375,-0.61686 16.95371,-5.38184 3.06299,-3.48204 4.59624,-8.24809 4.13809,-12.86285 -3.89596,-5.99069 -10.8537,-9.07005 -17.66306,-10.3243 -3.48006,-0.66588 -7.02479,-0.95071 -10.56421,-1.01447 z" />
    <g
       inkscape:label="Layer 1"
       id="layer1-2"
       transform="matrix(3.7787354,0,0,3.7787277,93.894531,477.56779)">
      <path
         d="M 25.634671,51.987678 51.868112,12.592205 c 0,0 0.35206,-5.0787441 0,-9.8589217 C 51.516052,-2.0468943 12.883079,20.143893 25.634671,51.987678 Z"
         style="fill:#bababa;fill-opacity:1;fill-rule:evenodd;stroke:#737373;stroke-width:1.80515px;stroke-linecap:butt;stroke-linejoin:round;stroke-opacity:1"
         id="path901"
         sodipodi:nodetypes="cczc" />
      <path
         id="path899"
         style="fill:#1f1f1f;fill-opacity:1;fill-rule:evenodd;stroke:#737373;stroke-width:1.59547px;stroke-linecap:butt;stroke-linejoin:round;stroke-opacity:1"
         d="m 14.660074,19.903121 c -2.11105,0.04861 -5.1726734,2.078716 -5.9509217,3.504057 -3.9855112,3.284684 0.2165557,12.493364 0.2425017,14.078396 1.891572,1.375647 1.106355,0.912248 3.172445,2.111854 1.210197,0.545487 2.420394,1.090972 3.630591,1.636456 1.909875,-2.79118 5.484559,-13.497565 4.415789,-16.52606 -0.638743,-1.649415 -2.386953,-4.121103 -4.567066,-4.698022 -0.305979,-0.07178 -0.624432,-0.109285 -0.943339,-0.106681 z"
         sodipodi:nodetypes="cccccccc" />
      <path
         id="path958"
         style="fill:#bababa;fill-opacity:1;fill-rule:evenodd;stroke:#737373;stroke-width:1.80515px;stroke-linecap:butt;stroke-linejoin:round;stroke-opacity:1"
         d="m 19.793651,14.574456 c -4.367331,2.428807 -6.377601,5.997102 -3.749752,7.168954 2.795433,1.246584 -3.130449,13.749736 -5.524705,13.242106 l -0.5732942,8.470618 c 0,0 12.4475002,6.758901 15.6887652,8.531544 -0.737398,-4.988828 -0.839402,-10.296338 1.382215,-14.96729 2.134866,-5.21074 4.246955,-10.449901 6.987056,-15.394001 -3.698144,-3.27554 -9.342858,-6.052266 -14.210285,-7.051931 z"
         sodipodi:nodetypes="cscccccc" />
      <path
         id="path968"
         style="fill:#bababa;fill-opacity:1;fill-rule:evenodd;stroke:#737373;stroke-width:1.80515px;stroke-linecap:butt;stroke-linejoin:round;stroke-opacity:1"
         d="M 14.39968,14.545905 C 12.124406,14.836053 9.0070912,14.087382 7.3974882,15.877412 3.5107014,20.833385 0.34917696,26.922894 0.99989575,33.33525 1.6956088,35.42354 8.4645273,41.882361 9.9458998,43.456134 9.9417339,41.43316 9.8788418,38.794961 10.452332,34.979797 7.148955,28.194723 13.173433,20.576752 16.044408,21.74341 c 2.733373,-4.755269 1.958838,-3.244726 4.64747,-8.125157 -2.09026,-0.429603 -4.156255,0.950193 -6.292198,0.927652 z"
         sodipodi:nodetypes="cccccccc" />
      <path
         id="path927"
         style="fill:#bababa;fill-opacity:1;fill-rule:evenodd;stroke:#737373;stroke-width:1.80515px;stroke-linecap:butt;stroke-linejoin:round;stroke-opacity:1"
         d="M 29.697734,1.0338075 C 22.988819,1.5255649 17.431625,5.8361327 12.686136,10.138344 11.038975,11.685135 8.814431,14.126394 7.3974882,15.877412 16.441289,14.234608 27.077692,15.554177 34.003936,21.626387 37.981409,14.640966 51.580199,5.649639 51.868112,2.6619465 52.156025,-0.32574601 36.474852,1.4737737 29.697734,1.0338075 Z"
         sodipodi:nodetypes="cccccc" />
      <path
         id="path1131"
         style="fill:#1f1f1f;fill-opacity:1;fill-rule:evenodd;stroke:none;stroke-width:0.670862;stroke-linecap:round;stroke-linejoin:round;stroke-opacity:1;stop-color:#000000"
         d="m 15.550593,22.650075 c 0,1.518337 -2.87639,11.141455 -4.556914,11.141455 -5.9968889,-7.107246 1.005308,-12.54595 4.556914,-11.141455 z"
         sodipodi:nodetypes="ccc" />
    </g>
    <g
       id="layer3"
       inkscape:label="Layer 2"
       style="display:inline;mix-blend-mode:color;stroke-width:1.00007;stroke-miterlimit:4;stroke-dasharray:none"
       transform="matrix(3.7787354,0,0,3.7787277,93.894531,477.56779)">
      <path
         id="path1048"
         style="color:#000000;font-style:normal;font-variant:normal;font-weight:normal;font-stretch:normal;font-size:medium;line-height:normal;font-family:sans-serif;font-variant-ligatures:normal;font-variant-position:normal;font-variant-caps:normal;font-variant-numeric:normal;font-variant-alternates:normal;font-variant-east-asian:normal;font-feature-settings:normal;font-variation-settings:normal;text-indent:0;text-align:start;text-decoration:none;text-decoration-line:none;text-decoration-style:solid;text-decoration-color:#000000;letter-spacing:normal;word-spacing:normal;text-transform:none;writing-mode:lr-tb;direction:ltr;text-orientation:mixed;dominant-baseline:auto;baseline-shift:baseline;text-anchor:start;white-space:normal;shape-padding:0;shape-margin:0;inline-size:0;clip-rule:nonzero;display:inline;overflow:visible;visibility:visible;isolation:auto;mix-blend-mode:normal;color-interpolation:sRGB;color-interpolation-filters:linearRGB;solid-color:#000000;solid-opacity:1;vector-effect:none;fill:#ff78cf;fill-opacity:1;fill-rule:evenodd;stroke:none;stroke-width:1.00007;stroke-linecap:butt;stroke-linejoin:round;stroke-miterlimit:4;stroke-dasharray:none;stroke-dashoffset:0;stroke-opacity:1;color-rendering:auto;image-rendering:auto;shape-rendering:auto;text-rendering:auto;enable-background:accumulate;stop-color:#000000"
         d="m 43.408659,0.00111828 c -4.770864,0.02162536 -10.40427,0.35655518 -13.662383,0.14479682 -0.04351,-0.003046 -0.08718,-0.003046 -0.130685,0 -7.066208,0.51854319 -12.776572,5.0077417 -17.557584,9.3471515 -0.0038,0.00325 -0.0076,0.00652 -0.01137,0.00983 -1.692066,1.5907894 -3.9087022,4.0283564 -5.3575087,5.8192774 -0.00721,0.0082 -0.014275,0.01643 -0.021181,0.02483 -3.9592252,5.054163 -7.26214913,11.346851 -6.57757136,18.100632 0.0064824,0.0638 0.01999123,0.126742 0.0402922,0.18772 0.25493746,0.766119 0.79532791,1.481763 1.48349106,2.303821 0.6881633,0.822057 1.5321607,1.705915 2.3962123,2.57066 1.7281041,1.729492 2.7306842,3.574497 5.4281967,5.674403 2.6975128,2.099905 4.7762458,2.617563 6.0187778,3.297856 0.01207,0.0066 0.0243,0.01303 0.03667,0.01913 3.415029,1.869726 7.349612,4.024324 9.682474,5.301633 h 5.16e-4 c 0.01207,0.0066 0.0243,0.01303 0.03667,0.01913 0.02478,0.01215 0.05012,0.02319 0.07593,0.03309 0.0128,0.0049 0.02572,0.0096 0.03874,0.01396 0.09202,0.03059 0.188445,0.04665 0.285645,0.04757 h 5.16e-4 c 0.09726,8.57e-4 0.19404,-0.01346 0.286679,-0.0424 0.01301,-0.004 0.02593,-0.0083 0.03874,-0.01293 l 5.16e-4,-5.16e-4 c 0.117418,-0.04237 0.224665,-0.107849 0.315088,-0.192373 0.0099,-0.0093 0.01951,-0.01875 0.02893,-0.02844 v -5.16e-4 c 0.009,-0.0091 0.01777,-0.01844 0.02635,-0.02793 7.01e-4,-6.99e-4 0.0014,-0.0014 0.0021,-0.0021 0.009,-0.01 0.01779,-0.02015 0.02634,-0.03051 v -5.19e-4 c 0.0065,-0.0082 0.01289,-0.01645 0.01911,-0.02483 0.0021,-0.0026 0.0041,-0.0051 0.0062,-0.0077 0.008,-0.01086 0.01575,-0.02189 0.02324,-0.03309 v -5.2e-4 c 5.01e-4,-6.99e-4 0.001,-0.0014 0.0015,-0.0021 l 0.0062,-0.0093 c 0.0049,-0.0073 0.0098,-0.01476 0.01446,-0.02224 L 52.611256,13.088176 c 0.08517,-0.127532 0.13549,-0.274225 0.146176,-0.426116 0,0 0.357612,-5.1098421 9.99e-4,-9.9765016 C 52.795911,1.9650248 52.283551,1.3101738 51.715542,0.98419632 51.1311,0.64878716 50.435917,0.47039249 49.61169,0.33157592 47.963248,0.05394379 45.794036,-0.00968339 43.408609,0.00112929 Z"
         sodipodi:nodetypes="cccccccccssccccccccssccccccccccccccccccccsscc" />
    </g>
  </g>
</svg>
